<?xml version="1.0"?>
<svg xmlns="http://www.w3.org/2000/svg" xmlns:xlink="http://www.w3.org/1999/xlink" version="1.1" id="Capa_1" x="0px" y="0px" viewBox="0 0 512 512" style="enable-background:new 0 0 512 512;" xml:space="preserve" width="512px" height="512px"><g><g>
	<g>
		<g>
			<path d="M368,0h-32v32h32c61.827,0.071,111.93,50.173,112,112v224c-0.07,61.827-50.173,111.929-112,112H144     c-61.827-0.071-111.929-50.173-112-112V144C32.071,82.173,82.173,32.071,144,32h32V0h-32C64.508,0.088,0.088,64.508,0,144v224     c0.088,79.492,64.508,143.912,144,144h224c79.492-0.088,143.912-64.508,144-144V144C511.912,64.508,447.492,0.088,368,0z" data-original="#000000" class="active-path" data-old_color="#000000" fill="#0AFFEF"/>
			<path d="M112,256c0,79.529,64.471,144,144,144s144-64.471,144-144s-64.471-144-144-144C176.508,112.088,112.088,176.508,112,256z      M256,144c61.856,0,112,50.144,112,112s-50.144,112-112,112s-112-50.144-112-112C144.071,194.173,194.173,144.071,256,144z" data-original="#000000" class="active-path" data-old_color="#000000" fill="#0AFFEF"/>
			<rect x="384" y="96" width="32" height="32" data-original="#000000" class="active-path" data-old_color="#000000" fill="#0AFFEF"/>
			<rect x="208" width="32" height="32" data-original="#000000" class="active-path" data-old_color="#000000" fill="#0AFFEF"/>
			<rect x="272" width="32" height="32" data-original="#000000" class="active-path" data-old_color="#000000" fill="#0AFFEF"/>
		</g>
	</g>
</g></g> </svg>
